<svg width="755" height="219" viewBox="0 0 755 219" fill="none" xmlns="http://www.w3.org/2000/svg">
<g clip-path="url(#clip0_502_6)">
<path d="M157.76 105.322H272V106.23L93.3867 215.184L182.24 144.364L157.76 105.322ZM90.6667 0V217L0 144.364L90.6667 0Z" fill="black"/>
</g>
<path d="M371.136 149.151C365.102 149.151 359.912 147.872 355.565 145.315C351.244 142.733 347.92 139.153 345.594 134.577C343.293 130 342.142 124.733 342.142 118.776C342.142 112.741 343.305 107.449 345.632 102.898C347.984 98.321 351.321 94.7543 355.642 92.1974C359.963 89.6151 365.102 88.3239 371.06 88.3239C376.199 88.3239 380.699 89.2571 384.56 91.1236C388.42 92.9901 391.476 95.6108 393.726 98.9858C395.976 102.361 397.216 106.324 397.446 110.875H382.028C381.594 107.935 380.443 105.57 378.577 103.78C376.736 101.964 374.32 101.057 371.328 101.057C368.797 101.057 366.585 101.747 364.693 103.128C362.827 104.483 361.369 106.464 360.321 109.072C359.273 111.68 358.749 114.838 358.749 118.545C358.749 122.304 359.26 125.5 360.283 128.134C361.331 130.767 362.801 132.774 364.693 134.155C366.585 135.536 368.797 136.226 371.328 136.226C373.195 136.226 374.869 135.842 376.352 135.075C377.861 134.308 379.101 133.196 380.072 131.739C381.07 130.256 381.722 128.479 382.028 126.408H397.446C397.19 130.908 395.963 134.871 393.764 138.297C391.591 141.697 388.587 144.357 384.751 146.274C380.916 148.192 376.378 149.151 371.136 149.151ZM434.523 149.151C428.566 149.151 423.414 147.885 419.067 145.354C414.746 142.797 411.409 139.243 409.057 134.692C406.705 130.115 405.529 124.81 405.529 118.776C405.529 112.69 406.705 107.372 409.057 102.821C411.409 98.2443 414.746 94.6903 419.067 92.1591C423.414 89.6023 428.566 88.3239 434.523 88.3239C440.48 88.3239 445.62 89.6023 449.941 92.1591C454.287 94.6903 457.637 98.2443 459.989 102.821C462.341 107.372 463.517 112.69 463.517 118.776C463.517 124.81 462.341 130.115 459.989 134.692C457.637 139.243 454.287 142.797 449.941 145.354C445.62 147.885 440.48 149.151 434.523 149.151ZM434.6 136.494C437.31 136.494 439.573 135.727 441.388 134.193C443.203 132.634 444.571 130.511 445.492 127.827C446.438 125.142 446.911 122.087 446.911 118.661C446.911 115.234 446.438 112.179 445.492 109.494C444.571 106.81 443.203 104.687 441.388 103.128C439.573 101.568 437.31 100.788 434.6 100.788C431.864 100.788 429.563 101.568 427.696 103.128C425.855 104.687 424.462 106.81 423.516 109.494C422.596 112.179 422.135 115.234 422.135 118.661C422.135 122.087 422.596 125.142 423.516 127.827C424.462 130.511 425.855 132.634 427.696 134.193C429.563 135.727 431.864 136.494 434.6 136.494ZM523.155 105.889L508.198 106.81C507.942 105.531 507.392 104.381 506.549 103.358C505.705 102.31 504.593 101.479 503.212 100.865C501.857 100.226 500.233 99.9062 498.341 99.9062C495.81 99.9062 493.675 100.443 491.936 101.517C490.198 102.565 489.328 103.972 489.328 105.736C489.328 107.142 489.891 108.331 491.016 109.303C492.141 110.274 494.071 111.054 496.807 111.642L507.469 113.79C513.196 114.966 517.466 116.858 520.279 119.466C523.091 122.074 524.498 125.5 524.498 129.744C524.498 133.605 523.36 136.993 521.084 139.908C518.834 142.822 515.74 145.098 511.803 146.734C507.891 148.345 503.378 149.151 498.265 149.151C490.466 149.151 484.253 147.527 479.625 144.28C475.023 141.007 472.326 136.558 471.533 130.933L487.603 130.089C488.088 132.467 489.265 134.283 491.131 135.536C492.998 136.763 495.388 137.376 498.303 137.376C501.167 137.376 503.468 136.827 505.206 135.727C506.971 134.602 507.865 133.158 507.891 131.393C507.865 129.911 507.239 128.696 506.012 127.75C504.784 126.778 502.892 126.037 500.336 125.526L490.134 123.493C484.381 122.342 480.098 120.348 477.286 117.51C474.499 114.672 473.105 111.054 473.105 106.656C473.105 102.872 474.128 99.6122 476.174 96.8764C478.245 94.1406 481.147 92.0312 484.88 90.5483C488.638 89.0653 493.036 88.3239 498.073 88.3239C505.513 88.3239 511.368 89.8963 515.638 93.0412C519.934 96.1861 522.439 100.469 523.155 105.889ZM534.786 170.091V89.0909H550.893V98.9858H551.622C552.338 97.4006 553.374 95.7898 554.729 94.1534C556.109 92.4915 557.899 91.1108 560.098 90.0114C562.322 88.8864 565.084 88.3239 568.382 88.3239C572.678 88.3239 576.641 89.4489 580.271 91.6989C583.902 93.9233 586.804 97.2855 588.977 101.786C591.151 106.26 592.237 111.872 592.237 118.622C592.237 125.193 591.176 130.741 589.054 135.267C586.957 139.767 584.094 143.18 580.463 145.507C576.858 147.808 572.818 148.959 568.344 148.959C565.173 148.959 562.476 148.435 560.251 147.386C558.053 146.338 556.25 145.021 554.844 143.436C553.438 141.825 552.364 140.202 551.622 138.565H551.124V170.091H534.786ZM550.778 118.545C550.778 122.048 551.264 125.104 552.236 127.712C553.207 130.32 554.614 132.352 556.455 133.81C558.295 135.241 560.533 135.957 563.166 135.957C565.825 135.957 568.075 135.229 569.916 133.771C571.757 132.288 573.151 130.243 574.097 127.635C575.068 125.001 575.554 121.972 575.554 118.545C575.554 115.145 575.081 112.153 574.135 109.571C573.189 106.989 571.795 104.969 569.955 103.511C568.114 102.054 565.851 101.325 563.166 101.325C560.507 101.325 558.257 102.028 556.416 103.435C554.601 104.841 553.207 106.835 552.236 109.418C551.264 112 550.778 115.043 550.778 118.545ZM619.467 69.4545V148H603.129V69.4545H619.467ZM649.353 149.112C645.595 149.112 642.245 148.46 639.305 147.156C636.365 145.827 634.038 143.871 632.325 141.288C630.637 138.68 629.794 135.433 629.794 131.547C629.794 128.274 630.395 125.526 631.596 123.301C632.798 121.077 634.434 119.287 636.505 117.932C638.576 116.577 640.929 115.554 643.562 114.864C646.221 114.173 649.008 113.688 651.923 113.406C655.349 113.048 658.11 112.716 660.207 112.409C662.304 112.077 663.825 111.591 664.771 110.952C665.717 110.312 666.19 109.366 666.19 108.114V107.884C666.19 105.455 665.423 103.575 663.889 102.246C662.38 100.916 660.233 100.251 657.446 100.251C654.505 100.251 652.166 100.903 650.427 102.207C648.689 103.486 647.538 105.097 646.975 107.04L631.865 105.812C632.632 102.233 634.14 99.1392 636.39 96.5312C638.64 93.8977 641.542 91.8778 645.096 90.4716C648.676 89.0398 652.818 88.3239 657.522 88.3239C660.795 88.3239 663.927 88.7074 666.919 89.4744C669.936 90.2415 672.608 91.4304 674.934 93.0412C677.287 94.652 679.14 96.723 680.495 99.2543C681.85 101.76 682.528 104.764 682.528 108.267V148H667.034V139.831H666.574C665.627 141.672 664.362 143.295 662.777 144.702C661.191 146.082 659.287 147.169 657.062 147.962C654.838 148.729 652.268 149.112 649.353 149.112ZM654.032 137.837C656.436 137.837 658.558 137.364 660.399 136.418C662.24 135.446 663.684 134.142 664.733 132.506C665.781 130.869 666.305 129.016 666.305 126.945V120.693C665.794 121.026 665.091 121.332 664.196 121.614C663.326 121.869 662.342 122.112 661.243 122.342C660.143 122.547 659.044 122.739 657.944 122.918C656.845 123.071 655.848 123.212 654.953 123.339C653.035 123.621 651.36 124.068 649.929 124.682C648.497 125.295 647.385 126.126 646.592 127.175C645.799 128.197 645.403 129.476 645.403 131.01C645.403 133.234 646.208 134.935 647.819 136.111C649.456 137.261 651.527 137.837 654.032 137.837ZM703.181 170.091C701.11 170.091 699.167 169.925 697.351 169.592C695.561 169.286 694.078 168.889 692.902 168.403L696.584 156.207C698.502 156.795 700.228 157.115 701.762 157.166C703.321 157.217 704.664 156.859 705.789 156.092C706.939 155.325 707.873 154.021 708.588 152.18L709.547 149.688L688.415 89.0909H705.597L717.793 132.352H718.407L730.718 89.0909H748.015L725.118 154.366C724.019 157.537 722.523 160.298 720.631 162.651C718.765 165.028 716.4 166.857 713.536 168.135C710.672 169.439 707.221 170.091 703.181 170.091Z" fill="black"/>
<path d="M344.901 195.091V198.67H331.955V195.091H344.901ZM335.504 218V192.436C335.504 191.004 335.817 189.816 336.444 188.871C337.07 187.917 337.901 187.206 338.935 186.739C339.969 186.261 341.092 186.023 342.305 186.023C343.2 186.023 343.966 186.097 344.602 186.246C345.239 186.386 345.711 186.515 346.019 186.634L344.975 190.244C344.766 190.184 344.498 190.114 344.17 190.035C343.842 189.945 343.444 189.901 342.977 189.901C341.893 189.901 341.117 190.169 340.65 190.706C340.192 191.243 339.964 192.018 339.964 193.033V218H335.504ZM349.502 218V195.091H353.812V198.73H354.051C354.468 197.497 355.204 196.528 356.258 195.822C357.322 195.106 358.525 194.748 359.868 194.748C360.146 194.748 360.474 194.758 360.852 194.778C361.24 194.798 361.543 194.822 361.762 194.852V199.118C361.583 199.068 361.265 199.013 360.807 198.954C360.35 198.884 359.892 198.849 359.435 198.849C358.381 198.849 357.441 199.073 356.616 199.521C355.801 199.958 355.154 200.57 354.677 201.355C354.2 202.131 353.961 203.016 353.961 204.01V218H349.502ZM374.45 218.462C372.303 218.462 370.428 217.97 368.828 216.986C367.227 216.001 365.984 214.624 365.099 212.854C364.214 211.085 363.771 209.016 363.771 206.65C363.771 204.273 364.214 202.195 365.099 200.415C365.984 198.636 367.227 197.254 368.828 196.269C370.428 195.285 372.303 194.793 374.45 194.793C376.598 194.793 378.472 195.285 380.073 196.269C381.674 197.254 382.917 198.636 383.802 200.415C384.687 202.195 385.129 204.273 385.129 206.65C385.129 209.016 384.687 211.085 383.802 212.854C382.917 214.624 381.674 216.001 380.073 216.986C378.472 217.97 376.598 218.462 374.45 218.462ZM374.465 214.719C375.857 214.719 377.011 214.351 377.926 213.615C378.84 212.879 379.517 211.9 379.954 210.677C380.401 209.454 380.625 208.107 380.625 206.635C380.625 205.173 380.401 203.831 379.954 202.608C379.517 201.375 378.84 200.386 377.926 199.64C377.011 198.894 375.857 198.521 374.465 198.521C373.063 198.521 371.9 198.894 370.975 199.64C370.061 200.386 369.379 201.375 368.932 202.608C368.494 203.831 368.276 205.173 368.276 206.635C368.276 208.107 368.494 209.454 368.932 210.677C369.379 211.9 370.061 212.879 370.975 213.615C371.9 214.351 373.063 214.719 374.465 214.719ZM390.107 218V195.091H394.388V198.82H394.671C395.148 197.557 395.929 196.572 397.013 195.866C398.097 195.151 399.394 194.793 400.906 194.793C402.437 194.793 403.719 195.151 404.754 195.866C405.798 196.582 406.568 197.567 407.065 198.82H407.304C407.851 197.597 408.721 196.622 409.914 195.896C411.107 195.161 412.529 194.793 414.18 194.793C416.258 194.793 417.953 195.444 419.266 196.746C420.588 198.049 421.249 200.013 421.249 202.638V218H416.79V203.055C416.79 201.504 416.367 200.381 415.522 199.685C414.677 198.989 413.668 198.641 412.494 198.641C411.043 198.641 409.914 199.088 409.109 199.983C408.303 200.868 407.901 202.006 407.901 203.398V218H403.456V202.772C403.456 201.529 403.068 200.53 402.293 199.774C401.517 199.018 400.508 198.641 399.265 198.641C398.42 198.641 397.639 198.864 396.923 199.312C396.217 199.749 395.646 200.361 395.208 201.146C394.781 201.932 394.567 202.842 394.567 203.876V218H390.107ZM445.009 218.507C443.557 218.507 442.244 218.239 441.071 217.702C439.898 217.155 438.968 216.364 438.282 215.33C437.606 214.296 437.268 213.028 437.268 211.527C437.268 210.234 437.516 209.17 438.013 208.335C438.511 207.5 439.182 206.839 440.027 206.352C440.872 205.864 441.817 205.496 442.861 205.248C443.905 204.999 444.969 204.81 446.053 204.681C447.425 204.522 448.538 204.393 449.393 204.293C450.249 204.184 450.87 204.01 451.258 203.771C451.646 203.533 451.839 203.145 451.839 202.608V202.504C451.839 201.201 451.472 200.192 450.736 199.476C450.01 198.76 448.926 198.402 447.484 198.402C445.983 198.402 444.8 198.735 443.935 199.401C443.08 200.058 442.488 200.788 442.16 201.594L437.969 200.639C438.466 199.247 439.192 198.124 440.146 197.268C441.111 196.403 442.219 195.777 443.472 195.389C444.725 194.991 446.043 194.793 447.425 194.793C448.339 194.793 449.309 194.902 450.333 195.121C451.367 195.33 452.332 195.717 453.227 196.284C454.131 196.851 454.872 197.661 455.449 198.715C456.026 199.759 456.314 201.116 456.314 202.787V218H451.959V214.868H451.78C451.491 215.445 451.059 216.011 450.482 216.568C449.906 217.125 449.165 217.587 448.26 217.955C447.355 218.323 446.271 218.507 445.009 218.507ZM445.978 214.928C447.211 214.928 448.265 214.684 449.14 214.197C450.025 213.71 450.696 213.073 451.153 212.288C451.621 211.492 451.854 210.642 451.854 209.737V206.784C451.695 206.943 451.387 207.092 450.93 207.232C450.482 207.361 449.97 207.475 449.393 207.575C448.817 207.664 448.255 207.749 447.708 207.828C447.161 207.898 446.704 207.957 446.336 208.007C445.471 208.116 444.68 208.3 443.964 208.559C443.259 208.817 442.692 209.19 442.264 209.678C441.847 210.155 441.638 210.791 441.638 211.587C441.638 212.69 442.045 213.526 442.861 214.092C443.676 214.649 444.715 214.928 445.978 214.928ZM462.254 218V195.091H466.564V198.73H466.803C467.22 197.497 467.956 196.528 469.01 195.822C470.074 195.106 471.277 194.748 472.619 194.748C472.898 194.748 473.226 194.758 473.604 194.778C473.992 194.798 474.295 194.822 474.514 194.852V199.118C474.335 199.068 474.017 199.013 473.559 198.954C473.102 198.884 472.644 198.849 472.187 198.849C471.133 198.849 470.193 199.073 469.368 199.521C468.553 199.958 467.906 200.57 467.429 201.355C466.952 202.131 466.713 203.016 466.713 204.01V218H462.254ZM482.832 204.398V218H478.373V195.091H482.653V198.82H482.937C483.464 197.607 484.289 196.632 485.413 195.896C486.546 195.161 487.973 194.793 489.693 194.793C491.254 194.793 492.621 195.121 493.795 195.777C494.968 196.423 495.878 197.388 496.524 198.67C497.17 199.953 497.494 201.539 497.494 203.428V218H493.034V203.965C493.034 202.305 492.602 201.007 491.737 200.072C490.871 199.128 489.683 198.656 488.172 198.656C487.138 198.656 486.218 198.879 485.413 199.327C484.617 199.774 483.986 200.43 483.518 201.295C483.061 202.151 482.832 203.185 482.832 204.398ZM513.124 218.462C510.977 218.462 509.102 217.97 507.501 216.986C505.901 216.001 504.658 214.624 503.773 212.854C502.888 211.085 502.445 209.016 502.445 206.65C502.445 204.273 502.888 202.195 503.773 200.415C504.658 198.636 505.901 197.254 507.501 196.269C509.102 195.285 510.977 194.793 513.124 194.793C515.272 194.793 517.146 195.285 518.747 196.269C520.348 197.254 521.591 198.636 522.476 200.415C523.361 202.195 523.803 204.273 523.803 206.65C523.803 209.016 523.361 211.085 522.476 212.854C521.591 214.624 520.348 216.001 518.747 216.986C517.146 217.97 515.272 218.462 513.124 218.462ZM513.139 214.719C514.531 214.719 515.685 214.351 516.599 213.615C517.514 212.879 518.19 211.9 518.628 210.677C519.075 209.454 519.299 208.107 519.299 206.635C519.299 205.173 519.075 203.831 518.628 202.608C518.19 201.375 517.514 200.386 516.599 199.64C515.685 198.894 514.531 198.521 513.139 198.521C511.737 198.521 510.574 198.894 509.649 199.64C508.734 200.386 508.053 201.375 507.606 202.608C507.168 203.831 506.95 205.173 506.95 206.635C506.95 208.107 507.168 209.454 507.606 210.677C508.053 211.9 508.734 212.879 509.649 213.615C510.574 214.351 511.737 214.719 513.139 214.719ZM533.241 187.455V218H528.781V187.455H533.241ZM550.143 195.091V198.67H537.197V195.091H550.143ZM540.746 218V192.436C540.746 191.004 541.06 189.816 541.686 188.871C542.313 187.917 543.143 187.206 544.177 186.739C545.211 186.261 546.335 186.023 547.548 186.023C548.442 186.023 549.208 186.097 549.844 186.246C550.481 186.386 550.953 186.515 551.261 186.634L550.217 190.244C550.009 190.184 549.74 190.114 549.412 190.035C549.084 189.945 548.686 189.901 548.219 189.901C547.135 189.901 546.359 190.169 545.892 190.706C545.435 191.243 545.206 192.018 545.206 193.033V218H540.746ZM563.491 218.462C561.344 218.462 559.469 217.97 557.869 216.986C556.268 216.001 555.025 214.624 554.14 212.854C553.255 211.085 552.812 209.016 552.812 206.65C552.812 204.273 553.255 202.195 554.14 200.415C555.025 198.636 556.268 197.254 557.869 196.269C559.469 195.285 561.344 194.793 563.491 194.793C565.639 194.793 567.513 195.285 569.114 196.269C570.715 197.254 571.958 198.636 572.843 200.415C573.728 202.195 574.17 204.273 574.17 206.65C574.17 209.016 573.728 211.085 572.843 212.854C571.958 214.624 570.715 216.001 569.114 216.986C567.513 217.97 565.639 218.462 563.491 218.462ZM563.506 214.719C564.898 214.719 566.052 214.351 566.967 213.615C567.881 212.879 568.558 211.9 568.995 210.677C569.442 209.454 569.666 208.107 569.666 206.635C569.666 205.173 569.442 203.831 568.995 202.608C568.558 201.375 567.881 200.386 566.967 199.64C566.052 198.894 564.898 198.521 563.506 198.521C562.104 198.521 560.941 198.894 560.016 199.64C559.102 200.386 558.42 201.375 557.973 202.608C557.536 203.831 557.317 205.173 557.317 206.635C557.317 208.107 557.536 209.454 557.973 210.677C558.42 211.9 559.102 212.879 560.016 213.615C560.941 214.351 562.104 214.719 563.506 214.719ZM596.93 218.507C595.479 218.507 594.166 218.239 592.993 217.702C591.82 217.155 590.89 216.364 590.204 215.33C589.528 214.296 589.19 213.028 589.19 211.527C589.19 210.234 589.438 209.17 589.935 208.335C590.433 207.5 591.104 206.839 591.949 206.352C592.794 205.864 593.739 205.496 594.783 205.248C595.827 204.999 596.891 204.81 597.974 204.681C599.347 204.522 600.46 204.393 601.315 204.293C602.17 204.184 602.792 204.01 603.18 203.771C603.567 203.533 603.761 203.145 603.761 202.608V202.504C603.761 201.201 603.393 200.192 602.658 199.476C601.932 198.76 600.848 198.402 599.406 198.402C597.905 198.402 596.722 198.735 595.857 199.401C595.001 200.058 594.41 200.788 594.082 201.594L589.891 200.639C590.388 199.247 591.114 198.124 592.068 197.268C593.033 196.403 594.141 195.777 595.394 195.389C596.647 194.991 597.964 194.793 599.347 194.793C600.261 194.793 601.231 194.902 602.255 195.121C603.289 195.33 604.254 195.717 605.148 196.284C606.053 196.851 606.794 197.661 607.371 198.715C607.947 199.759 608.236 201.116 608.236 202.787V218H603.881V214.868H603.702C603.413 215.445 602.981 216.011 602.404 216.568C601.827 217.125 601.087 217.587 600.182 217.955C599.277 218.323 598.193 218.507 596.93 218.507ZM597.9 214.928C599.133 214.928 600.187 214.684 601.062 214.197C601.947 213.71 602.618 213.073 603.075 212.288C603.543 211.492 603.776 210.642 603.776 209.737V206.784C603.617 206.943 603.309 207.092 602.852 207.232C602.404 207.361 601.892 207.475 601.315 207.575C600.739 207.664 600.177 207.749 599.63 207.828C599.083 207.898 598.626 207.957 598.258 208.007C597.393 208.116 596.602 208.3 595.886 208.559C595.18 208.817 594.614 209.19 594.186 209.678C593.768 210.155 593.56 210.791 593.56 211.587C593.56 212.69 593.967 213.526 594.783 214.092C595.598 214.649 596.637 214.928 597.9 214.928ZM613.698 218V214.942L626.107 199.178V198.969H614.101V195.091H631.671V198.342L619.739 213.913V214.122H632.088V218H613.698ZM646.567 218.462C644.31 218.462 642.366 217.98 640.735 217.016C639.114 216.041 637.862 214.674 636.977 212.914C636.102 211.144 635.664 209.071 635.664 206.695C635.664 204.348 636.102 202.28 636.977 200.49C637.862 198.7 639.094 197.303 640.675 196.299C642.266 195.295 644.126 194.793 646.254 194.793C647.546 194.793 648.799 195.006 650.012 195.434C651.225 195.862 652.314 196.533 653.278 197.447C654.243 198.362 655.004 199.55 655.56 201.012C656.117 202.464 656.396 204.229 656.396 206.307V207.888H638.185V204.547H652.026C652.026 203.374 651.787 202.335 651.31 201.43C650.832 200.515 650.161 199.794 649.296 199.267C648.441 198.74 647.437 198.477 646.283 198.477C645.031 198.477 643.937 198.785 643.002 199.401C642.077 200.008 641.362 200.803 640.854 201.788C640.357 202.762 640.109 203.821 640.109 204.964V207.575C640.109 209.106 640.377 210.408 640.914 211.482C641.461 212.556 642.222 213.376 643.196 213.943C644.17 214.5 645.309 214.778 646.612 214.778C647.457 214.778 648.227 214.659 648.923 214.42C649.619 214.172 650.221 213.804 650.728 213.317C651.235 212.83 651.623 212.228 651.891 211.512L656.112 212.273C655.774 213.516 655.168 214.604 654.293 215.539C653.428 216.464 652.339 217.185 651.026 217.702C649.724 218.209 648.237 218.462 646.567 218.462ZM680.285 195.091L671.978 218H667.205L658.883 195.091H663.67L669.472 212.72H669.711L675.498 195.091H680.285ZM693.571 218.462C691.314 218.462 689.37 217.98 687.739 217.016C686.118 216.041 684.865 214.674 683.98 212.914C683.105 211.144 682.668 209.071 682.668 206.695C682.668 204.348 683.105 202.28 683.98 200.49C684.865 198.7 686.098 197.303 687.679 196.299C689.27 195.295 691.13 194.793 693.257 194.793C694.55 194.793 695.803 195.006 697.016 195.434C698.229 195.862 699.318 196.533 700.282 197.447C701.247 198.362 702.007 199.55 702.564 201.012C703.121 202.464 703.4 204.229 703.4 206.307V207.888H685.189V204.547H699.029C699.029 203.374 698.791 202.335 698.314 201.43C697.836 200.515 697.165 199.794 696.3 199.267C695.445 198.74 694.441 198.477 693.287 198.477C692.034 198.477 690.941 198.785 690.006 199.401C689.081 200.008 688.365 200.803 687.858 201.788C687.361 202.762 687.113 203.821 687.113 204.964V207.575C687.113 209.106 687.381 210.408 687.918 211.482C688.465 212.556 689.225 213.376 690.2 213.943C691.174 214.5 692.313 214.778 693.615 214.778C694.461 214.778 695.231 214.659 695.927 214.42C696.623 214.172 697.225 213.804 697.732 213.317C698.239 212.83 698.627 212.228 698.895 211.512L703.116 212.273C702.778 213.516 702.172 214.604 701.297 215.539C700.431 216.464 699.343 217.185 698.03 217.702C696.728 218.209 695.241 218.462 693.571 218.462ZM716.923 218.447C715.074 218.447 713.423 217.975 711.972 217.031C710.53 216.076 709.396 214.719 708.571 212.959C707.756 211.189 707.348 209.066 707.348 206.59C707.348 204.114 707.761 201.996 708.586 200.237C709.421 198.477 710.565 197.129 712.017 196.195C713.468 195.26 715.114 194.793 716.953 194.793C718.375 194.793 719.519 195.031 720.384 195.509C721.259 195.976 721.935 196.523 722.412 197.149C722.899 197.776 723.277 198.327 723.546 198.805H723.814V187.455H728.274V218H723.919V214.435H723.546C723.277 214.923 722.889 215.479 722.382 216.106C721.885 216.732 721.199 217.279 720.324 217.746C719.449 218.214 718.316 218.447 716.923 218.447ZM717.908 214.644C719.191 214.644 720.274 214.306 721.159 213.63C722.054 212.944 722.73 211.994 723.188 210.781C723.655 209.568 723.889 208.156 723.889 206.545C723.889 204.955 723.66 203.562 723.203 202.369C722.745 201.176 722.074 200.246 721.189 199.58C720.304 198.914 719.21 198.581 717.908 198.581C716.566 198.581 715.447 198.929 714.552 199.625C713.657 200.321 712.981 201.271 712.524 202.474C712.076 203.677 711.852 205.034 711.852 206.545C711.852 208.077 712.081 209.454 712.539 210.677C712.996 211.9 713.672 212.869 714.567 213.585C715.472 214.291 716.585 214.644 717.908 214.644ZM744.288 218.462C742.141 218.462 740.266 217.97 738.665 216.986C737.065 216.001 735.822 214.624 734.937 212.854C734.052 211.085 733.609 209.016 733.609 206.65C733.609 204.273 734.052 202.195 734.937 200.415C735.822 198.636 737.065 197.254 738.665 196.269C740.266 195.285 742.141 194.793 744.288 194.793C746.436 194.793 748.31 195.285 749.911 196.269C751.512 197.254 752.755 198.636 753.64 200.415C754.525 202.195 754.967 204.273 754.967 206.65C754.967 209.016 754.525 211.085 753.64 212.854C752.755 214.624 751.512 216.001 749.911 216.986C748.31 217.97 746.436 218.462 744.288 218.462ZM744.303 214.719C745.695 214.719 746.849 214.351 747.763 213.615C748.678 212.879 749.354 211.9 749.792 210.677C750.239 209.454 750.463 208.107 750.463 206.635C750.463 205.173 750.239 203.831 749.792 202.608C749.354 201.375 748.678 200.386 747.763 199.64C746.849 198.894 745.695 198.521 744.303 198.521C742.901 198.521 741.738 198.894 740.813 199.64C739.898 200.386 739.217 201.375 738.77 202.608C738.332 203.831 738.114 205.173 738.114 206.635C738.114 208.107 738.332 209.454 738.77 210.677C739.217 211.9 739.898 212.879 740.813 213.615C741.738 214.351 742.901 214.719 744.303 214.719Z" fill="black"/>
<defs>
<clipPath id="clip0_502_6">
<rect width="272" height="217" fill="white"/>
</clipPath>
</defs>
</svg>
